<svg width="131" height="80" viewBox="0 0 131 80" fill="none" xmlns="http://www.w3.org/2000/svg">
<g filter="url(#filter0_d_499_7806)">
<g clip-path="url(#clip0_499_7806)">
<path d="M15.1936 107.193C6.4333 107.907 -1.12565 106.554 -7.48328 103.134C-13.8409 99.7145 -18.5764 94.6639 -21.6896 87.9828L-7.35335 77.9526C-3.12422 86.7687 4.09341 90.7607 14.2995 89.9285C19.0624 89.5401 22.5652 88.3984 24.8079 86.5032C27.0507 84.608 28.0541 82.2145 27.8183 79.3228C27.5617 76.1759 25.9608 73.8663 23.0154 72.3942C20.0631 70.8369 14.889 69.3325 7.49323 67.8807C-0.525647 66.1373 -6.91724 63.8759 -11.6815 61.0966C-17.6347 57.3868 -20.9407 51.4919 -21.5995 43.4121C-22.2653 35.2472 -19.9397 28.5935 -14.6227 23.4511C-9.31953 18.1385 -2.58552 15.1494 5.57939 14.4836C12.7237 13.9011 19.2021 15.128 25.0148 18.1643C30.8274 21.2006 35.5248 25.7834 39.1067 31.9125L25.0048 41.6669C20.8085 34.3035 14.798 30.9409 6.97331 31.5789C3.40116 31.8701 0.6213 32.953 -1.36628 34.8274C-3.36079 36.6167 -4.25056 38.8297 -4.03557 41.4663C-3.80672 44.2729 -2.47129 46.4757 -0.0292762 48.0745C2.66789 49.6526 7.32817 51.1561 13.9516 52.5852L20.2417 54.1272C21.3751 54.3772 23.3477 54.9441 26.1595 55.8279C28.7873 56.5554 30.7312 57.2958 31.9913 58.0493C36.3668 60.261 39.3885 62.6687 41.0563 65.2724C43.5589 68.6643 45.0078 72.7842 45.4031 77.6321C46.0758 85.882 43.5905 92.6771 37.9471 98.0174C32.3038 103.358 24.7193 106.416 15.1936 107.193ZM86.8308 101.352C78.0705 102.066 70.5116 100.713 64.154 97.2932C57.7963 93.8733 53.0609 88.8227 49.9476 82.1417L64.2839 72.1114C68.513 80.9275 75.7307 84.9195 85.9368 84.0873C90.6997 83.6989 94.2024 82.5572 96.4452 80.662C98.6879 78.7668 99.6914 76.3733 99.4556 73.4816C99.199 70.3347 97.598 68.0251 94.6526 66.553C91.7003 64.9958 86.5263 63.4913 79.1305 62.0395C71.1116 60.2961 64.72 58.0347 59.9557 55.2554C54.0025 51.5456 50.6965 45.6508 50.0377 37.5709C49.372 29.406 51.6976 22.7523 57.0146 17.6099C62.3177 12.2973 69.0517 9.30817 77.2166 8.64242C84.3609 8.05989 90.8394 9.28678 96.652 12.3231C102.465 15.3594 107.162 19.9422 110.744 26.0713L96.642 35.8257C92.4457 28.4623 86.4353 25.0997 78.6106 25.7377C75.0384 26.029 72.2586 27.1118 70.271 28.9862C68.2765 30.7755 67.3867 32.9885 67.6017 35.6251C67.8305 38.4318 69.166 40.6345 71.608 42.2333C74.3051 43.8114 78.9654 45.3149 85.5888 46.7441L91.8789 48.286C93.0123 48.536 94.9849 49.1029 97.7967 49.9867C100.425 50.7142 102.368 51.4546 103.629 52.2081C108.004 54.4198 111.026 56.8275 112.694 59.4313C115.196 62.8231 116.645 66.943 117.04 71.7909C117.713 80.0408 115.228 86.836 109.584 92.1762C103.941 97.5165 96.3565 100.575 86.8308 101.352Z" fill="#D9D9D9"/>
<path d="M101.152 45.1481C101.624 45.2107 102.089 45.1603 102.515 44.9849C103.127 44.7331 103.58 44.256 103.831 43.6717C104.799 41.4136 103.573 39.4262 102.229 37.8991C101.574 37.155 100.812 36.4305 100.096 35.7501C100.055 35.7109 100.014 35.6718 99.9726 35.6328C99.2043 34.9021 98.5005 34.2246 97.9465 33.5598C96.4754 31.7945 95.9309 30.2807 95.453 28.7896C95.4163 28.6752 95.3799 28.5602 95.3433 28.4445C94.9282 27.1341 94.4875 25.7424 93.4163 24.3503C93.3714 22.4298 92.9411 20.3396 91.3284 18.7152C89.6213 16.9957 86.7909 16 82.3672 16C77.9164 16 72.2515 17.1122 67.7003 21.4738C63.1399 25.8442 59.8672 33.3135 59.8672 45.6667C59.8672 65.3038 64.9955 78.0286 67.6796 82.0547C67.865 82.3329 68.1773 82.5 68.5116 82.5H107.759C108.112 82.5 108.438 82.3147 108.618 82.0122C108.799 81.7098 108.807 81.3347 108.639 81.0248C106.913 77.8281 103.562 75.2436 100.193 72.6445C100.053 72.5369 99.9139 72.4292 99.7744 72.3215C96.1852 69.5494 92.5272 66.6544 90.0611 62.7918C86.5608 57.3093 86.6209 52.5884 86.6802 47.9351C86.6847 47.586 86.6891 47.2374 86.6921 46.8888C87.8014 46.5315 88.6615 46.0965 89.3069 45.6329C89.7809 45.2923 90.1636 44.9177 90.4342 44.5274C90.799 44.539 91.1589 44.5425 91.5081 44.5451C91.5588 44.5455 91.6092 44.5459 91.6594 44.5462C92.168 44.5498 92.6523 44.5532 93.1329 44.5756C94.1835 44.6243 95.138 44.7616 96.039 45.1472C96.9765 45.5485 97.9594 45.8646 98.9042 45.8771C99.7112 45.8878 100.487 45.675 101.152 45.1481Z" stroke="white" stroke-width="2" stroke-linecap="round" stroke-linejoin="round"/>
<path d="M78.9955 23.935C80.0463 24.9574 79.5496 26.4759 78.8809 27.049C78.2123 27.6221 76.3395 27.6685 75.7861 26.3804C75.1748 24.9574 74.9837 23.6485 76.1108 23.0754C76.9914 22.6276 78.3465 23.3036 78.9955 23.935Z" fill="white"/>
<path fill-rule="evenodd" clip-rule="evenodd" d="M60.8672 45.6667C60.8672 65.16 65.9635 77.6778 68.5116 81.5H107.759C104.411 75.3 94.3651 71.3912 89.2183 63.3299C85.079 56.8468 85.6955 51.2999 85.6955 46.1388C88.4659 45.4054 89.6162 44.2372 89.8455 43.4991C87.8096 43.3698 85.3523 42.9408 83.1207 42.3132C83.7948 41.6623 83.7572 40.2708 83.3227 39.4556C83.0687 39.134 82.5105 38.2742 82.3095 37.4075C82.9846 36.5126 83.1102 33.6709 83.2358 32.462C83.4181 30.7079 84.0051 30.7507 84.1464 29.2592C84.2877 27.7677 83.5969 25.8366 84.5075 24.9574C85.5594 25.2704 86.9435 25.6019 87.9144 25.4598C88.5581 25.3656 89.1076 24.7376 90.395 24.4393C91.425 24.2007 92.1616 24.3957 92.4203 24.7062C92.4203 20.884 90.9672 17 82.3672 17C73.7672 17 60.8672 21.3 60.8672 45.6667ZM78.8809 27.049C79.5496 26.4759 80.0463 24.9574 78.9955 23.935C78.3465 23.3036 76.9914 22.6276 76.1108 23.0754C74.9837 23.6485 75.1748 24.9574 75.7861 26.3804C76.3395 27.6685 78.2123 27.6221 78.8809 27.049Z" fill="white"/>
<path d="M78.9949 23.9352C80.0456 24.9576 79.5489 26.476 78.8803 27.0492C78.2116 27.6223 76.3389 27.6687 75.7854 26.3805C75.1741 24.9576 74.9831 23.6487 76.1102 23.0755C76.9908 22.6278 78.3459 23.3037 78.9949 23.9352Z" fill="#333333"/>
<path d="M76.9103 23.8848C76.4553 24.0276 76.2102 24.677 76.337 25.1915" stroke="white" stroke-width="0.7" stroke-linecap="round"/>
<path d="M92.9248 36.0369C93.2038 35.5022 93.1035 34.9444 91.8797 33.9337C91.0436 33.2433 90.654 33.0306 90.1895 33.5467C89.725 34.0628 90.4518 34.8665 90.9766 35.3401L90.9863 35.3489C91.7963 36.0801 92.4155 36.6389 92.9248 36.0369Z" fill="#F68221"/>
<path d="M92.9248 36.0369C93.2038 35.5022 93.1035 34.9444 91.8797 33.9337C91.0436 33.2433 90.654 33.0306 90.1895 33.5467C89.725 34.0628 90.4518 34.8665 90.9766 35.3401L90.9863 35.3489C91.7963 36.0801 92.4155 36.6389 92.9248 36.0369Z" fill="#333333" fill-opacity="0.2"/>
<path d="M100.858 44.0565C99.498 43.6032 96.1388 42.592 92.0708 40.3836C89.9462 39.2303 84.9157 39.2961 83.3231 39.4554C83.7576 40.2706 83.7952 41.6622 83.1211 42.313C85.3527 42.9407 87.81 43.3697 89.8459 43.499C92.0708 43.6403 94.3153 43.3214 96.4328 44.2277C98.2296 44.9967 99.7878 45.2473 100.858 44.0565Z" fill="#F68221"/>
<path fill-rule="evenodd" clip-rule="evenodd" d="M97.1783 34.2001C93.9931 30.3779 94.8093 27.573 92.4204 24.7063C92.1616 24.3958 91.425 24.2008 90.3951 24.4394C89.1077 24.7377 88.5582 25.3657 87.9145 25.4599C86.9435 25.602 85.5595 25.2705 84.5076 24.9575C83.597 25.8367 84.2878 27.7678 84.1465 29.2593C84.0052 30.7508 83.4181 30.708 83.2359 32.4621C83.1103 33.671 82.9847 36.5127 82.3096 37.4076C82.5105 38.2742 83.0688 39.1341 83.3228 39.4556C84.9154 39.2964 89.9459 39.2306 92.0704 40.3839C96.1385 42.5922 99.4976 43.6035 100.857 44.0567C101.834 44.3822 102.602 44 102.912 43.2779C104.345 39.9334 99.5672 37.0667 97.1783 34.2001ZM91.8798 33.9335C93.1036 34.9441 93.2039 35.502 92.9249 36.0366C92.4155 36.6386 91.7964 36.0798 90.9863 35.3486L90.9766 35.3399C90.4518 34.8662 89.7251 34.0625 90.1896 33.5464C90.6541 33.0303 91.0437 33.243 91.8798 33.9335Z" fill="#F68221"/>
<path d="M68.5116 81.5C65.9635 77.6778 60.8672 65.16 60.8672 45.6667C60.8672 21.3 73.7672 17 82.3672 17C90.9672 17 92.4203 20.884 92.4203 24.7062M92.4203 24.7062C94.8092 27.5729 93.9931 30.3778 97.1783 34.2C99.5672 37.0667 104.345 39.9333 102.912 43.2778C102.602 43.9999 101.834 44.3821 100.857 44.0566M92.4203 24.7062C92.1616 24.3957 91.425 24.2007 90.395 24.4393C89.1076 24.7376 88.5581 25.3656 87.9144 25.4598C86.9435 25.6019 85.5594 25.2704 84.5075 24.9574C83.5969 25.8366 84.2877 27.7677 84.1464 29.2592C84.0051 30.7507 83.4181 30.7079 83.2358 32.462C83.1102 33.6709 82.9846 36.5126 82.3095 37.4075C82.5105 38.2742 83.0687 39.134 83.3227 39.4556M100.857 44.0566C99.4976 43.6034 96.1384 42.5922 92.0704 40.3838C89.9459 39.2305 84.9153 39.2963 83.3227 39.4556M100.857 44.0566C99.7874 45.2474 98.2292 44.9969 96.4324 44.2279C94.3149 43.3216 92.0704 43.6404 89.8455 43.4991M83.3227 39.4556C83.7572 40.2708 83.7948 41.6623 83.1207 42.3132C85.3523 42.9408 87.8096 43.3698 89.8455 43.4991M89.8455 43.4991C89.6162 44.2372 88.4659 45.4054 85.6955 46.1388M78.4006 46.7919C81.5841 46.8874 83.9583 46.5986 85.6955 46.1388M85.6955 46.1388C85.6955 51.2999 85.079 56.8468 89.2183 63.3299C94.3651 71.3912 104.411 75.3 107.759 81.5M90.9766 35.3398C90.4518 34.8661 89.725 34.0625 90.1895 33.5464C90.654 33.0303 91.0437 33.243 91.8798 33.9334C93.1035 34.9441 93.2038 35.5019 92.9249 36.0366C92.4155 36.6385 91.7964 36.0797 90.9863 35.3486M90.9766 35.3398L90.9863 35.3486M90.9766 35.3398C90.9798 35.3427 90.9831 35.3457 90.9863 35.3486" stroke="#333333" stroke-linecap="round" stroke-linejoin="round"/>
<path d="M98.3293 38.9595C99.2346 37.1946 101.629 38.7523 102.713 39.7517L103.534 41.8165L102.713 44.1642L100.988 44.4188L98.3293 45.2391L94.652 43.9379L88.1179 43.4288L83.4224 42.3822L83.1695 38.9595C85.1496 38.5446 88.0951 38.0884 90.2675 38.4505C92.9829 38.9031 97.1976 41.1656 98.3293 38.9595Z" fill="#333333" fill-opacity="0.2"/>
<path d="M87.0912 31.1203C88.5585 31.5577 89.5482 33.1063 89.8143 34.4576L90.449 33.5382L91.5342 33.1063C90.449 32.5535 89.8382 31.8029 88.9544 30.2398C87.5618 27.7769 90.8737 24.2262 92.8446 25.6552L91.8004 24.2002L87.3574 25.6552L84.4909 24.8364L83.979 25.9219L84.3681 29.2592L83.1695 31.5728C83.1322 32.2349 83.0576 34.0135 83.0576 35.8319C83.5285 34.0302 85.2281 30.5648 87.0912 31.1203Z" fill="#333333" fill-opacity="0.2"/>
<path d="M66.7705 39.9101C68.9993 44.8912 75.5439 46.2607 78.5377 46.3228C81.0747 46.3228 82.3932 43.8355 82.7354 42.5918C82.1113 41.8932 80.75 39.9058 80.2979 37.5449C79.8458 35.1841 81.8038 32.828 82.8393 31.9451C82.9322 30.75 82.7186 28.6569 81.8672 27.0002C81.5076 26.3006 80.1025 25.672 79.8672 25.0002C79.6442 24.3638 80.8672 23.5002 80.8672 22.0002C80.8672 19.5002 79.4777 18.2529 86.3126 17.5092C88.3954 17.1857 90.3524 18.601 91.0706 19.3491C91.6391 20.4415 92.7493 22.9583 92.6416 24.2869C91.9593 24.2869 90.7115 24.4964 90.1728 24.6011L88.0632 25.5886L84.607 24.9602L83.9786 26.0375L84.2479 29.4488L82.8393 31.9451L83.2526 32.2928L82.3196 37.2994L83.9078 40.9219L82.7354 42.5918L83.629 42.2852C85.8939 42.7745 90.4 43.7483 90.3053 43.7293C90.2106 43.7104 87.3764 45.4504 85.9711 46.3228V51.0287L86.7022 57.3424C87.4775 59.1147 89.3606 63.2573 90.6898 65.6499C86.968 63.789 82.9804 59.3362 81.4519 57.3424C81.6512 57.8963 82.05 59.4691 82.05 61.33C78.5941 58.5653 76.3123 54.5068 75.6034 52.8232L75.0717 56.0797C72.6686 54.7134 67.6441 49.5666 66.7705 39.9101Z" fill="#333333" fill-opacity="0.2"/>
<path d="M68.0956 81.7774C68.1883 81.9165 68.3445 82 68.5116 82H107.759C107.935 82 108.099 81.9074 108.189 81.7561C108.279 81.6049 108.283 81.4173 108.199 81.2624C106.525 78.1619 103.252 75.6367 99.8452 73.0078C99.7199 72.9111 99.5944 72.8143 99.4688 72.7172C95.8875 69.9513 92.1595 67.0075 89.6397 63.0608C86.0551 57.4464 86.1189 52.5806 86.1799 47.9246C86.186 47.454 86.1922 46.9856 86.1945 46.5187C87.4353 46.1552 88.3567 45.6998 89.0151 45.2268C89.5595 44.8357 89.9423 44.4187 90.1635 44.0169C90.6176 44.037 91.0692 44.0418 91.5119 44.0451C91.5627 44.0455 91.6135 44.0459 91.6641 44.0462C92.1709 44.0498 92.6651 44.0533 93.156 44.0761C94.2333 44.1261 95.2558 44.2682 96.2357 44.6875C97.1537 45.0804 98.0645 45.3659 98.9108 45.3771C99.6851 45.3874 100.405 45.1669 101.007 44.6156C101.478 44.7174 101.929 44.6853 102.325 44.5224C102.807 44.324 103.169 43.9474 103.371 43.4747C104.213 41.5096 103.183 39.7395 101.854 38.2294C101.214 37.5027 100.467 36.7925 99.7469 36.1081C99.7072 36.0704 99.6676 36.0327 99.6281 35.9951C98.8632 35.2677 98.138 34.5706 97.5624 33.8799C96.0306 32.0417 95.4622 30.4564 94.9769 28.9422C94.9407 28.8295 94.905 28.7168 94.8692 28.6041C94.4385 27.2459 94.0078 25.888 92.9193 24.5268C92.8967 22.6167 92.5013 20.6063 90.9736 19.0675C89.4009 17.4834 86.7291 16.5 82.3672 16.5C77.9918 16.5 72.4719 17.5936 68.0462 21.8348C63.616 26.0804 60.3672 33.3984 60.3672 45.6667C60.3672 65.2319 65.4795 77.8532 68.0956 81.7774Z" stroke="#333333" stroke-linecap="round" stroke-linejoin="round"/>
</g>
</g>
<defs>
<filter id="filter0_d_499_7806" x="-15" y="0" width="161" height="115" filterUnits="userSpaceOnUse" color-interpolation-filters="sRGB">
<feFlood flood-opacity="0" result="BackgroundImageFix"/>
<feColorMatrix in="SourceAlpha" type="matrix" values="0 0 0 0 0 0 0 0 0 0 0 0 0 0 0 0 0 0 127 0" result="hardAlpha"/>
<feOffset dy="20"/>
<feGaussianBlur stdDeviation="7.5"/>
<feComposite in2="hardAlpha" operator="out"/>
<feColorMatrix type="matrix" values="0 0 0 0 0.2 0 0 0 0 0.2 0 0 0 0 0.2 0 0 0 0.05 0"/>
<feBlend mode="normal" in2="BackgroundImageFix" result="effect1_dropShadow_499_7806"/>
<feBlend mode="normal" in="SourceGraphic" in2="effect1_dropShadow_499_7806" result="shape"/>
</filter>
<clipPath id="clip0_499_7806">
<path d="M0 0H131V60C131 71.0457 122.046 80 111 80H0V0Z" fill="white"/>
</clipPath>
</defs>
</svg>
