<svg width="50" height="51" viewBox="0 0 50 51" fill="none" xmlns="http://www.w3.org/2000/svg">
<path d="M49.875 25.8222C49.7562 29.3086 48.8893 32.7285 47.3333 35.8491C47.1636 36.1846 46.9944 36.52 46.8039 36.8453C46.5664 37.2854 46.3124 37.7152 46.0417 38.1347C44.2689 40.9188 41.9458 43.3097 39.2158 45.16C36.6337 46.9145 33.7415 48.1596 30.694 48.8284C30.0268 48.9771 29.3549 49.0948 28.6723 49.1853C28.6129 49.1954 28.5566 49.2007 28.4942 49.2055C23.6851 49.8144 18.8037 48.9796 14.4683 46.8068C14.4517 46.7974 14.434 46.7902 14.4155 46.7854C9.31565 44.2415 5.26162 39.994 2.95263 34.7756C2.83807 34.5377 2.72945 34.2962 2.62024 34.0488C1.25494 30.8387 0.595966 27.3715 0.68819 23.8833C0.893562 15.3218 5.48893 7.89633 12.2722 3.68786V3.6837C16.3402 1.1624 21.0539 -0.114972 25.8357 0.00812867C25.853 0.0108192 25.8706 0.0108192 25.8879 0.00812867C28.9065 0.0832624 31.8851 0.718486 34.6726 1.8816C35.395 2.17898 36.0972 2.51442 36.7816 2.88019C38.6086 3.85065 40.3042 5.0515 41.8268 6.45346C41.8283 6.4522 41.8302 6.45151 41.8322 6.45151C41.8341 6.45151 41.836 6.4522 41.8375 6.45346V6.45882C43.5206 8.00074 44.9812 9.77008 46.1771 11.7158L46.1872 11.7426C46.2655 11.8586 46.3332 11.9746 46.4008 12.0905C46.5724 12.3701 46.7338 12.6496 46.8846 12.9392C48.1559 15.2961 49.0261 17.8489 49.4595 20.4926C49.5972 21.2241 49.7034 21.9604 49.7735 22.7021C49.7984 22.9073 49.8079 23.1071 49.8227 23.3123C49.8823 24.1475 49.8997 24.9852 49.875 25.8222V25.8222Z" fill="#E9812A"/>
<path d="M30.6916 48.8281C30.2292 48.9411 29.7882 49.0232 29.4154 49.0845C29.178 49.1255 28.9269 49.1606 28.6699 49.1856C29.3525 49.0946 30.0244 48.9768 30.6916 48.8281Z" fill="#333333"/>
<path d="M22.2907 16.4281C22.2165 16.4995 22.1233 16.5239 21.931 16.5167C21.7476 16.5108 21.4734 16.4745 21.0436 16.4216C20.6697 16.3764 20.2958 16.3359 19.9218 16.2919C19.1704 16.2033 18.6053 16.2325 17.5523 16.28C16.5433 16.3282 16.3159 16.399 15.8066 16.2711C15.5658 16.2126 15.3314 16.1303 15.1068 16.0255C14.8569 15.9065 14.6741 15.7668 14.6872 15.6436C14.7649 15.8393 15.4351 15.7519 16.0589 15.6508C16.9813 15.5027 17.4562 15.3808 17.9316 15.2874C18.713 15.1366 19.5065 15.057 20.3023 15.0495C20.8206 15.0404 21.339 15.0689 21.8533 15.1345C21.9504 15.1461 22.0481 15.1511 22.1459 15.1494C22.1548 15.1601 22.1637 15.1714 22.172 15.1827C22.2691 15.322 22.3403 15.4778 22.3821 15.6425C22.4676 15.9589 22.445 16.2782 22.2907 16.4281Z" fill="#CC6600"/>
<path d="M22.1462 15.1506C22.0484 15.1523 21.9507 15.1473 21.8536 15.1357C21.3393 15.07 20.821 15.0416 20.3026 15.0507C19.5068 15.0582 18.7134 15.1378 17.9319 15.2886C17.4571 15.3819 16.9822 15.5039 16.0592 15.652C15.4354 15.7531 14.7653 15.8405 14.6875 15.6448C14.7112 15.4301 15.3274 15.3326 15.6871 15.2773C19.144 14.7521 21.095 14.4696 21.8993 14.9412C21.994 14.9948 22.0778 15.0658 22.1462 15.1506Z" fill="#CC6600"/>
<path d="M22.5473 15.0612C22.4201 15.1152 22.2841 15.1453 22.146 15.1498C22.0482 15.1515 21.9505 15.1465 21.8534 15.1349C21.3391 15.0693 20.8208 15.0408 20.3024 15.0499C19.5066 15.0574 18.7132 15.137 17.9317 15.2878C17.4569 15.3812 16.982 15.5031 16.059 15.6512C15.4352 15.7523 14.7651 15.8397 14.6873 15.644C14.6837 15.6332 14.6813 15.6221 14.6802 15.6107C14.6469 15.2277 15.1906 14.7781 15.1906 14.7781C15.4833 14.5348 15.8376 14.2791 16.1771 14.0471C16.227 14.1285 16.2948 14.1973 16.3754 14.2482C17.1672 14.7436 19.3088 13.4548 20.0668 11.5676C20.097 11.4933 20.3327 10.9015 20.4027 10.3495C20.3321 10.3406 20.2644 10.3329 20.2009 10.3275C20.2644 10.2711 20.3373 10.2264 20.4164 10.1955C21.3263 9.83866 23.7035 10.5089 24.0555 12.2093C24.3048 13.3965 23.4981 14.6817 22.5473 15.0612Z" fill="#FF9308"/>
<path d="M46.8016 36.8438C46.5641 37.2851 46.3137 37.7163 46.0412 38.1368C43.4379 42.2012 39.6923 45.4028 35.2764 47.3382C33.8005 47.9848 32.265 48.4848 30.6917 48.831C30.2299 48.9416 29.7895 49.0255 29.4167 49.0885C29.1793 49.1254 28.9288 49.1623 28.6718 49.1884C28.6124 49.1991 28.5566 49.2045 28.4937 49.2099C26.2833 49.4906 24.045 49.4666 21.8411 49.1385C20.9911 48.4498 20.1732 47.5826 19.5487 46.5257C18.6358 44.9794 18.1432 43.0458 18.0013 42.121C17.8894 41.3848 17.8245 40.6423 17.8072 39.8978C17.8019 39.6296 17.8019 39.3405 17.8072 39.0461C17.8173 38.741 17.8333 38.4258 17.8595 38.0999C17.8595 38.0999 17.8856 37.6056 17.996 36.8806C18.0274 36.6909 18.0642 36.4917 18.1064 36.2704C18.1109 36.2349 18.1179 36.1997 18.1272 36.1651C18.3319 35.1541 18.6988 33.9265 19.3232 32.9695L19.3546 32.9226C20.3927 31.3594 21.2949 29.7099 22.0512 27.9921L22.1296 27.8184V27.813C22.1341 27.7987 22.1394 27.7846 22.1456 27.7708C22.1564 27.7507 22.1651 27.7296 22.1717 27.7078V27.7024C22.5913 26.7199 22.9374 25.7837 23.2259 24.9011C23.2259 24.9011 23.2419 24.8536 23.268 24.7643C23.2747 24.7425 23.2834 24.7214 23.2941 24.7013C23.3624 24.4961 23.4722 24.1601 23.6093 23.7342C23.6722 23.5183 23.7452 23.287 23.8188 23.0348C23.861 22.9158 23.8978 22.7826 23.934 22.6512C24.0972 22.0993 24.2646 21.4843 24.4118 20.88C24.4433 20.7272 24.4801 20.5749 24.5115 20.4226C24.5323 20.3067 24.5584 20.1966 24.5798 20.086C24.6011 19.9754 24.6213 19.8654 24.6427 19.7601C24.6641 19.6548 24.6795 19.5448 24.6949 19.4395C24.7104 19.3342 24.7264 19.2343 24.7371 19.135C24.8522 18.2518 24.8261 17.547 24.5323 17.3109C24.4395 17.2363 24.335 17.1776 24.223 17.1372C23.7191 16.9588 23.1 17.1479 22.586 17.0183C22.5433 17.0066 22.5013 16.9925 22.4602 16.9761C22.3691 16.9452 22.284 16.8989 22.2085 16.8393C22.1432 16.7936 22.0848 16.7387 22.0352 16.6763C21.9971 16.6289 21.9637 16.5779 21.9355 16.524H21.9301V16.5187C21.7782 16.2457 21.7467 15.9239 21.7835 15.5671C21.7988 15.4223 21.8216 15.2783 21.8518 15.1359C21.8672 15.0675 21.8832 15.0044 21.8987 14.9414V14.9361C22.2138 13.6585 22.9641 12.1502 22.1925 11.2093C21.7105 10.6086 20.9507 10.4195 20.4047 10.3446C20.3311 10.3398 20.2681 10.3291 20.2052 10.3237C20.6445 9.79747 21.1447 9.3253 21.6951 8.91716C22.5173 8.30077 23.4553 7.85713 24.4528 7.61287C25.3475 7.36966 26.2855 7.33185 27.1968 7.50224C27.8988 7.63823 28.5727 7.89242 29.19 8.25401C30.465 9.01113 31.1363 10.0044 31.5452 10.633C32.3062 11.7839 32.5947 12.8193 32.7834 13.4973C33.5598 16.3938 32.9989 18.8013 32.7519 19.8422C32.6421 20.268 32.327 20.9829 31.7393 22.4442C31.0894 24.05 30.475 25.4245 30.475 25.4245C30.4388 25.5137 30.3077 25.7451 30.1504 26.0448C30.1183 26.1079 30.0768 26.1709 30.0453 26.2393C29.977 26.3708 29.9034 26.5177 29.8298 26.6699C29.7669 26.7966 29.704 26.9275 29.6464 27.0589C29.5871 27.1778 29.5313 27.3063 29.4784 27.4324C29.4191 27.5692 29.3686 27.7054 29.3212 27.8422C29.3158 27.8636 29.3057 27.8898 29.3004 27.9106C29.2907 27.9293 29.2837 27.9493 29.2796 27.9701C29.2321 28.1068 29.1953 28.2436 29.1609 28.3751V28.3804C29.146 28.439 29.1355 28.4987 29.1294 28.5589V28.5642C29.1192 28.6285 29.114 28.6936 29.114 28.7587C29.1147 28.9521 29.1285 29.1453 29.1556 29.3368C29.1662 29.3998 29.1763 29.4629 29.1924 29.5259C29.1928 29.5491 29.1964 29.5721 29.203 29.5943V29.5997H29.2084V29.605C29.2148 29.644 29.2235 29.6825 29.2345 29.7204C29.2553 29.7942 29.2766 29.8679 29.3028 29.9417C29.3028 29.9518 29.3028 29.9571 29.3075 29.9625V29.9678C29.3128 29.9785 29.3128 29.9886 29.3182 29.9993C29.3342 30.0463 29.3496 30.0939 29.3657 30.1361V30.1498C29.3811 30.1867 29.3971 30.2129 29.4126 30.2444C29.4179 30.2551 29.4179 30.2652 29.4286 30.2759V30.2813C29.4402 30.3137 29.4541 30.3453 29.4701 30.3758C29.484 30.4118 29.4998 30.4469 29.5176 30.4811C29.5973 30.6411 29.6902 30.794 29.7954 30.9385L29.8008 30.9486C29.8168 30.97 29.8376 30.9962 29.8536 31.017V31.0223C29.9129 31.0961 29.9687 31.1698 30.0316 31.243C30.0656 31.2843 30.1025 31.323 30.1421 31.359C30.1691 31.3978 30.2008 31.4331 30.2364 31.4642C30.2425 31.4705 30.2495 31.4757 30.2572 31.4797C30.2895 31.5174 30.3246 31.5526 30.3623 31.585C30.3824 31.6076 30.4053 31.6276 30.4305 31.6444C30.5035 31.7075 30.5825 31.7705 30.6614 31.8288C30.7808 31.919 30.907 31.9997 31.0389 32.0703C31.1173 32.1125 31.1909 32.1541 31.2698 32.1892C31.3938 32.2558 31.5237 32.3103 31.658 32.3522C31.6634 32.3575 31.6634 32.3575 31.6681 32.3522C31.7684 32.3891 31.8675 32.4206 31.9649 32.4468C31.9974 32.457 32.0308 32.4642 32.0646 32.4682C32.144 32.4892 32.2247 32.5049 32.3062 32.5152C32.3266 32.5214 32.3478 32.525 32.3691 32.5259C32.4711 32.5461 32.5745 32.5584 32.6783 32.5627C32.7135 32.5617 32.7486 32.5635 32.7834 32.5681H32.8885C32.9407 32.5728 32.9983 32.5728 33.0072 32.5728C33.3218 32.5889 33.647 32.6151 33.983 32.6412C34.8013 32.7043 35.6861 32.8111 36.6374 32.9618C41.1437 33.6821 44.3229 34.1709 46.5309 36.547C46.6443 36.6546 46.7333 36.7593 46.8016 36.8438Z" fill="white"/>
<path d="M33.0202 32.5735L32.8979 32.5664C32.9502 32.5682 33.0066 32.5712 33.0202 32.5735Z" fill="white"/>
<path d="M20.4034 10.3478C20.3328 10.8991 20.0971 11.4915 20.0669 11.5658C19.3089 13.453 17.1673 14.7412 16.3755 14.2464C16.2949 14.1955 16.2271 14.1267 16.1772 14.0454C16.6521 13.7183 17.099 13.4369 17.3181 13.2948C17.8363 12.9617 18.2903 12.6667 18.8204 12.1838C19.592 11.4814 19.8651 10.9854 19.9481 10.8218C20.1233 10.487 20.0924 10.4257 20.1998 10.3252C20.2645 10.3305 20.3322 10.3383 20.4034 10.3478Z" fill="#FF9C31"/>
<path d="M24.7398 19.1363C24.8532 18.2513 24.8253 17.5501 24.5309 17.3086C24.4384 17.2334 24.3336 17.1748 24.2211 17.1356C23.7183 16.9601 23.1028 17.1463 22.5882 17.0166C22.5446 17.0059 22.5018 16.9923 22.46 16.9762C22.603 16.7918 23.2832 16.7181 23.8447 16.8215C24.333 16.913 24.7869 17.1368 25.1571 17.4686C26.5745 18.8247 23.9908 24.1299 23.2702 24.7657C23.4981 24.1019 24.4828 21.1454 24.7398 19.1363Z" fill="#B5B5B5"/>
<path d="M26.146 11.839C26.5552 11.839 26.8868 11.5067 26.8868 11.0967C26.8868 10.6868 26.5552 10.3545 26.146 10.3545C25.7369 10.3545 25.4053 10.6868 25.4053 11.0967C25.4053 11.5067 25.7369 11.839 26.146 11.839Z" fill="#333333"/>
<path d="M28.7715 50.7975C28.789 50.7571 28.806 50.7454 28.7891 50.7858C28.7832 50.7904 28.7773 50.7975 28.7715 50.7975Z" fill="#E0D9D9"/>
<path d="M35.2764 47.3381C33.8006 47.9847 32.265 48.4847 30.6917 48.8309C30.2299 48.9415 29.7895 49.0254 29.4167 49.0884C29.1793 49.1253 28.9288 49.1622 28.6718 49.1883C28.6124 49.199 28.5567 49.2044 28.4937 49.2097C26.2833 49.4905 24.045 49.4665 21.8411 49.1384C20.9911 48.4497 20.1732 47.5825 19.5487 46.5256C18.6358 44.9793 18.1432 43.0457 18.0013 42.1209C17.8894 41.3847 17.8245 40.6422 17.8072 39.8977C17.8019 39.6295 17.8019 39.3404 17.8072 39.046C17.8173 38.7409 17.8333 38.4257 17.8595 38.0998C17.8595 38.0998 17.8856 37.6055 17.996 36.8805C18.0274 36.6908 18.0642 36.4916 18.1064 36.2703C18.1109 36.2348 18.1179 36.1996 18.1272 36.165C18.4631 37.3928 18.9458 38.5754 19.5648 39.6872C19.8794 40.2498 20.6658 41.7004 22.0577 43.0178C25.3467 46.1456 29.7058 46.7445 32.8113 47.1335C33.8447 47.2667 34.7048 47.3143 35.2764 47.3381Z" fill="#E0D9D9"/>
<path d="M26.9873 29.1069C26.9731 29.0998 26.9588 29.0914 26.944 29.0825L26.9612 29.0659L26.9725 29.0837C26.9778 29.092 26.9832 29.0998 26.9873 29.1069ZM26.8496 29.0201C26.7873 28.9751 26.7319 28.9212 26.6852 28.8601C26.6717 28.8438 26.6606 28.8258 26.652 28.8065C26.6364 28.7811 26.6269 28.7524 26.6241 28.7227C26.6243 28.7205 26.6243 28.7183 26.6241 28.7161C26.6208 28.7025 26.6208 28.6882 26.6241 28.6745C26.6342 28.6257 26.6882 28.5704 26.7837 28.5098L26.7903 28.5187C26.805 28.5371 26.8178 28.557 26.8283 28.5782C26.8435 28.6149 26.8525 28.6539 26.855 28.6935C26.855 28.7013 26.855 28.7078 26.855 28.7144V28.7382C26.8562 28.7538 26.8562 28.7695 26.855 28.7851C26.855 28.7976 26.855 28.8083 26.855 28.8232V28.85C26.8501 28.9065 26.8483 28.9633 26.8496 29.0201Z" fill="#704621"/>
<path d="M26.7744 28.5483C26.7835 28.5602 26.7914 28.573 26.7982 28.5863C26.8126 28.6207 26.8211 28.6573 26.8231 28.6946C26.8231 28.7011 26.8231 28.7071 26.8231 28.7136C26.8231 28.7202 26.8231 28.7309 26.8231 28.7362C26.8243 28.7507 26.8243 28.7652 26.8231 28.7796C26.8231 28.7796 26.8231 28.7832 26.8231 28.7856C26.8231 28.788 26.8231 28.8046 26.8231 28.8183V28.8468C26.8231 28.8873 26.8195 28.9236 26.8195 28.9551C26.7778 28.922 26.7403 28.8838 26.7079 28.8415C26.6966 28.828 26.6872 28.813 26.68 28.7969C26.6801 28.7949 26.6801 28.7929 26.68 28.7909C26.6678 28.7702 26.6601 28.7471 26.6575 28.7231C26.6581 28.719 26.6581 28.7148 26.6575 28.7106C26.6554 28.7014 26.6554 28.6919 26.6575 28.6827C26.6664 28.6387 26.7228 28.5911 26.7809 28.5518M26.7987 28.4704C26.6207 28.5768 26.6046 28.6452 26.5993 28.6702C26.5952 28.6886 26.5952 28.7077 26.5993 28.7261C26.6024 28.7593 26.6127 28.7914 26.6296 28.8201C26.6388 28.8417 26.6512 28.8617 26.6664 28.8796C26.7145 28.9433 26.7719 28.9994 26.8367 29.0461C26.8468 29.0532 26.8569 29.0598 26.867 29.0681C26.8779 29.076 26.8892 29.0834 26.9008 29.0901C26.9316 29.1105 26.9635 29.1292 26.9964 29.146C27.0112 29.1543 27.0267 29.1615 27.0397 29.168C27.0397 29.1085 27.0017 29.0788 26.9733 29.0235C26.9733 29.0235 26.9733 29.0235 26.9733 29.0199C26.9495 29.0419 26.9275 29.0633 26.9056 29.0871C26.8771 29.0764 26.8813 28.9682 26.8866 28.8492C26.8866 28.8195 26.8902 28.801 26.8902 28.7856C26.8917 28.7678 26.8917 28.7499 26.8902 28.7321C26.8902 28.7184 26.8902 28.7035 26.8902 28.6886C26.8872 28.6453 26.8772 28.6027 26.8605 28.5626C26.8338 28.5084 26.8053 28.4864 26.8011 28.4668L26.7987 28.4704Z" fill="#543213"/>
<path d="M29.4482 27.8329C29.4482 28.5418 27.8022 29.1164 25.7806 29.1164C23.7589 29.1164 22.1177 28.5418 22.1177 27.8329C22.1189 27.7821 22.1277 27.7318 22.1438 27.6836C22.3604 28.3152 23.9079 28.8136 25.7806 28.8136C27.6532 28.8136 29.2054 28.317 29.4221 27.6836C29.4381 27.7318 29.4469 27.7821 29.4482 27.8329Z" fill="#330000"/>
<path d="M29.4979 27.7063C29.4979 28.4158 27.8466 28.9904 25.8178 28.9904C23.789 28.9904 22.1377 28.4158 22.1377 27.7063C22.1387 27.6557 22.1473 27.6056 22.1632 27.5576C22.3811 28.1886 23.9338 28.6876 25.8136 28.6876C27.6934 28.6876 29.251 28.191 29.4688 27.5576C29.4859 27.6054 29.4957 27.6556 29.4979 27.7063Z" fill="#7F5229"/>
<path d="M26.968 29.0199C26.9443 29.0419 26.9223 29.0633 26.9004 29.0871C26.8719 29.0764 26.876 28.9682 26.8814 28.8492C26.8814 28.8195 26.8849 28.8011 26.8849 28.7856C26.8868 28.7678 26.8868 28.7499 26.8849 28.7321C26.8849 28.7184 26.8849 28.7035 26.8849 28.6886C26.882 28.6453 26.872 28.6027 26.8553 28.5626C26.8285 28.5084 26.8001 28.4864 26.7959 28.4668L26.8196 28.4531C26.8585 28.478 26.8919 28.5105 26.9177 28.5488C26.9435 28.587 26.9613 28.6302 26.9698 28.6756C26.9741 28.7099 26.9687 28.7447 26.9544 28.7761C26.9477 28.7968 26.9432 28.8181 26.9407 28.8397V28.851C26.9383 28.8943 26.9437 28.9376 26.9568 28.9789C26.9579 28.9944 26.9633 29.0057 26.968 29.0199Z" fill="#543213"/>
<path d="M28.9843 35.7996H28.9635C28.6547 35.79 28.3576 35.6795 28.1173 35.4849C27.8771 35.2904 27.7069 35.0224 27.6327 34.7219L26.5572 30.3951C26.4996 30.1654 26.5005 29.9249 26.5598 29.6957C26.6191 29.4664 26.735 29.2558 26.8967 29.0831H26.9038L26.9674 29.0195C26.9745 29.0123 26.9745 29.0123 26.9745 29.0052C27.068 28.92 27.1728 28.8484 27.2861 28.7923C27.3721 28.7484 27.4622 28.713 27.555 28.6864C27.5692 28.6864 27.5835 28.6793 27.5977 28.6793C27.687 28.6511 27.7801 28.6367 27.8737 28.6364H27.9444C28.0131 28.6338 28.082 28.6386 28.1497 28.6507C28.2048 28.6584 28.2591 28.6704 28.3124 28.6864C28.3195 28.6864 28.3195 28.6864 28.3266 28.6935C28.3075 28.6873 28.2873 28.6849 28.2673 28.6864C28.1502 28.6864 28.0336 28.7005 27.92 28.7286C27.556 28.8202 27.2427 29.0521 27.0483 29.3738C26.8539 29.6956 26.7941 30.0812 26.8819 30.4469L27.958 34.7731C28.0203 35.0213 28.1486 35.2479 28.3294 35.4287C28.5101 35.6094 28.7365 35.7377 28.9843 35.7996Z" fill="#330000"/>
<path d="M28.9468 28.3387C28.9483 28.3544 28.9471 28.3703 28.9432 28.3857C28.9408 28.4013 28.9375 28.4168 28.9332 28.432C28.926 28.4576 28.9195 28.4772 28.9142 28.4915C28.9142 28.4915 28.9142 28.4981 28.9088 28.5016C28.8545 28.6318 28.7718 28.748 28.6666 28.8418C28.3052 29.1725 27.6629 29.367 27.1602 29.2135C27.1174 29.2 27.0754 29.1841 27.0343 29.166C27.0343 29.1065 26.9964 29.0768 26.9679 29.0214C26.9679 29.0214 26.9679 29.0214 26.9679 29.0179C26.9631 29.006 26.9578 28.9947 26.953 28.981C26.94 28.9397 26.9346 28.8964 26.937 28.8531V28.8418C26.9394 28.8202 26.944 28.7989 26.9507 28.7782C26.965 28.7468 26.9704 28.712 26.9661 28.6777C26.9575 28.6323 26.9398 28.5891 26.914 28.5509C26.8881 28.5126 26.8548 28.4801 26.8159 28.4552C26.8397 28.4422 26.8664 28.4285 26.8972 28.4136C26.9281 28.3987 26.9661 28.3809 27.0047 28.3642C27.2005 28.2792 27.5139 28.1686 28.1586 28.1162C28.7699 28.0657 28.8708 28.1335 28.9153 28.2007C28.9401 28.2422 28.9511 28.2905 28.9468 28.3387Z" fill="#996633"/>
<path opacity="0.26" d="M27.3017 28.3423C27.2554 28.3726 27.3065 28.4107 27.389 28.4244C27.5421 28.4488 27.7641 28.3816 28.3013 28.3144C28.6622 28.2692 28.8218 28.2674 28.826 28.2584C28.839 28.2329 27.4691 28.2358 27.3017 28.3423Z" fill="#330000"/>
<path d="M29.3526 35.7587C29.2333 35.7938 29.1088 35.808 28.9846 35.801C28.7366 35.7389 28.5101 35.6104 28.3293 35.4292C28.1486 35.2481 28.0203 35.0212 27.9584 34.7726L26.8822 30.4476C26.7951 30.0819 26.8554 29.6964 27.0503 29.375C27.2451 29.0536 27.5586 28.8222 27.9227 28.7312C28.0364 28.7031 28.153 28.6889 28.27 28.6889C28.29 28.6874 28.3102 28.6898 28.3293 28.6961C28.4492 28.7255 28.5633 28.7748 28.6671 28.8418C28.8287 28.936 28.9698 29.0617 29.0819 29.2116C29.1941 29.3615 29.275 29.5324 29.32 29.7143L30.0631 32.7142L30.3955 34.0405C30.4832 34.4068 30.4227 34.793 30.2273 35.1149C30.032 35.4368 29.7176 35.6682 29.3526 35.7587Z" fill="#330000"/>
<path d="M29.6761 35.8087C29.4481 35.8666 29.2089 35.864 28.9823 35.801C28.7342 35.7389 28.5077 35.6104 28.327 35.4292C28.1462 35.2481 28.018 35.0212 27.956 34.7726L26.8822 30.4476C26.7951 30.0819 26.8554 29.6964 27.0503 29.375C27.2451 29.0536 27.5586 28.8222 27.9227 28.7312C28.0364 28.7031 28.153 28.6889 28.27 28.6889C28.29 28.6874 28.3102 28.6898 28.3293 28.6961C28.6351 28.7068 28.9291 28.8171 29.1666 29.0103C29.4042 29.2035 29.5725 29.469 29.6459 29.7666L30.722 34.0934C30.7668 34.2749 30.7752 34.4635 30.7467 34.6482C30.7183 34.833 30.6536 35.0103 30.5563 35.1698C30.459 35.3293 30.3312 35.4679 30.1801 35.5776C30.029 35.6872 29.8577 35.7658 29.6761 35.8087Z" fill="#7F5229"/>
<path d="M27.9767 31.0239C27.9057 31.0761 27.848 31.1444 27.8082 31.2232C27.776 31.2874 27.7686 31.3613 27.7874 31.4307C27.8023 31.4955 27.8419 31.5519 27.8978 31.5877C27.9239 31.6047 27.9533 31.6157 27.9841 31.62C28.0148 31.6243 28.0462 31.6218 28.0759 31.6127C28.1268 31.5991 28.1711 31.5674 28.2005 31.5235C28.2393 31.4616 28.2665 31.393 28.2806 31.3213L28.3008 31.2368C28.3243 31.1168 28.3566 30.9987 28.3976 30.8836C28.4311 30.8082 28.4796 30.7404 28.54 30.6843C28.5988 30.6356 28.6678 30.6008 28.7418 30.5826C28.823 30.5575 28.9084 30.5498 28.9927 30.5601C29.077 30.5703 29.1582 30.5983 29.2309 30.6421C29.3815 30.7384 29.4882 30.8904 29.5277 31.0649C29.5646 31.1889 29.5661 31.3208 29.5319 31.4456C29.4965 31.5669 29.4265 31.6752 29.3307 31.7572L29.1253 31.586C29.1951 31.5359 29.2509 31.4688 29.2873 31.3909C29.3164 31.3204 29.3203 31.2421 29.2986 31.169C29.2839 31.1079 29.2457 31.0551 29.1924 31.0221C29.167 31.0066 29.1387 30.9965 29.1093 30.9926C29.0798 30.9887 29.0499 30.9911 29.0214 30.9995C28.9706 31.0125 28.9269 31.045 28.8997 31.0899C28.8597 31.166 28.8326 31.2482 28.8196 31.3332L28.8107 31.373C28.7889 31.507 28.7565 31.6391 28.7139 31.7679C28.6826 31.843 28.6352 31.9102 28.5751 31.9648C28.5147 32.0149 28.4439 32.0507 28.3679 32.0695C28.2846 32.0951 28.1967 32.1022 28.1103 32.0902C28.024 32.0782 27.9413 32.0473 27.8681 31.9999C27.7116 31.8951 27.6012 31.7342 27.5595 31.5503C27.5199 31.4163 27.5168 31.2742 27.5506 31.1387C27.5833 31.0112 27.6536 30.8966 27.7524 30.8098L27.9767 31.0239Z" fill="#330000"/>
<path d="M28.4139 32.622C28.3427 32.674 28.2848 32.7421 28.2447 32.8206C28.2125 32.8851 28.2051 32.9592 28.2239 33.0288C28.2393 33.0928 28.2789 33.1482 28.3343 33.1834C28.3603 33.2006 28.3897 33.2119 28.4205 33.2163C28.4513 33.2207 28.4827 33.2182 28.5124 33.209C28.5633 33.1954 28.6076 33.1637 28.637 33.1198C28.6759 33.0579 28.703 32.9893 28.7172 32.9176L28.7379 32.8325C28.7611 32.7127 28.7932 32.5948 28.8341 32.4798C28.8676 32.4045 28.9161 32.3367 28.9766 32.2806C29.0354 32.2319 29.1044 32.197 29.1784 32.1783C29.2595 32.1532 29.345 32.1455 29.4292 32.1558C29.5135 32.166 29.5947 32.194 29.6675 32.2378C29.8181 32.3341 29.9247 32.4861 29.9642 32.6607C30.001 32.7846 30.0027 32.9164 29.969 33.0413C29.9332 33.1625 29.8631 33.2708 29.7672 33.3529L29.5618 33.1834C29.6317 33.1332 29.6875 33.0658 29.7239 32.9878C29.7527 32.9177 29.7566 32.8398 29.7351 32.7671C29.7203 32.7062 29.6821 32.6536 29.6289 32.6208C29.6037 32.605 29.5754 32.5948 29.5459 32.5908C29.5164 32.5868 29.4864 32.5891 29.4579 32.5976C29.4072 32.6111 29.3636 32.6437 29.3363 32.6886C29.2968 32.7649 29.2697 32.847 29.2561 32.9319L29.2472 32.9717C29.2256 33.1057 29.1933 33.2378 29.1505 33.3666C29.1188 33.4415 29.0715 33.5086 29.0116 33.5635C28.9513 33.6136 28.8805 33.6493 28.8044 33.6682C28.7212 33.694 28.6333 33.7013 28.547 33.6894C28.4606 33.6776 28.3779 33.647 28.3046 33.5998C28.1483 33.4948 28.0379 33.3339 27.996 33.1501C27.9564 33.0162 27.9534 32.8741 27.9871 32.7386C28.0204 32.6108 28.0919 32.4963 28.1919 32.4103L28.4139 32.622Z" fill="#330000"/>
<path d="M28.0733 31.0755C28.0022 31.1275 27.9442 31.1956 27.9042 31.2741C27.872 31.3386 27.8646 31.4127 27.8834 31.4823C27.8983 31.5469 27.938 31.6031 27.9938 31.6387C28.0198 31.6558 28.0492 31.6669 28.08 31.6713C28.1107 31.6757 28.1421 31.6734 28.1718 31.6643C28.2227 31.6505 28.2669 31.6188 28.2965 31.5751C28.3353 31.5132 28.3625 31.4446 28.3766 31.3729L28.3974 31.2878C28.4205 31.168 28.4527 31.0501 28.4936 30.9351C28.5271 30.8597 28.5756 30.792 28.636 30.7359C28.6949 30.6872 28.7638 30.6523 28.8378 30.6336C28.9189 30.6083 29.0044 30.6006 29.0887 30.6108C29.173 30.6211 29.2542 30.6491 29.3269 30.6931C29.4775 30.7892 29.5841 30.9409 29.6237 31.1153C29.6605 31.2395 29.6621 31.3715 29.6285 31.4966C29.5924 31.6177 29.5223 31.7259 29.4266 31.8082L29.2225 31.6369C29.2923 31.5867 29.3481 31.5194 29.3845 31.4413C29.4136 31.3708 29.4176 31.2925 29.3958 31.2194C29.381 31.1585 29.3428 31.106 29.2895 31.0731C29.2643 31.0573 29.236 31.0471 29.2065 31.0431C29.1771 31.0391 29.1471 31.0414 29.1186 31.0499C29.0678 31.0634 29.0242 31.096 28.9969 31.1409C28.9573 31.2172 28.9303 31.2993 28.9168 31.3842L28.9079 31.424C28.8863 31.5581 28.8539 31.6901 28.8111 31.8189C28.7795 31.8938 28.7321 31.961 28.6722 32.0158C28.6119 32.0659 28.5411 32.1016 28.4651 32.1205C28.3817 32.1461 28.2938 32.1532 28.2075 32.1412C28.1211 32.1292 28.0385 32.0983 27.9653 32.0509C27.8091 31.9458 27.6987 31.785 27.6566 31.6013C27.6171 31.4673 27.614 31.3252 27.6477 31.1897C27.6801 31.0621 27.7505 30.9474 27.8495 30.8608L28.0733 31.0755Z" fill="#B7A183"/>
<path d="M28.5113 32.6731C28.4401 32.725 28.3823 32.7931 28.3427 32.8718C28.3103 32.9362 28.3027 33.0103 28.3213 33.0799C28.3362 33.144 28.3748 33.1999 28.4294 33.2364C28.4555 33.2532 28.4849 33.2642 28.5156 33.2686C28.5464 33.273 28.5777 33.2707 28.6074 33.2619C28.6581 33.248 28.7021 33.2164 28.7315 33.1727C28.7703 33.1105 28.7976 33.0418 28.8122 32.9699L28.8324 32.8855C28.8555 32.7654 28.8876 32.6473 28.9286 32.5322C28.9622 32.4569 29.0107 32.3891 29.071 32.3329C29.1301 32.2843 29.1992 32.2496 29.2734 32.2312C29.3544 32.206 29.4398 32.1982 29.524 32.2085C29.6082 32.2187 29.6893 32.2468 29.7619 32.2907C29.9126 32.3867 30.0193 32.5385 30.0587 32.713C30.0955 32.8372 30.0971 32.9692 30.0635 33.0942C30.0278 33.2153 29.9576 33.3234 29.8616 33.4053L29.6563 33.2346C29.7261 33.1844 29.782 33.117 29.8183 33.0389C29.8474 32.9685 29.8514 32.8901 29.8296 32.8171C29.8149 32.7563 29.777 32.7037 29.7239 32.6708C29.6992 32.6556 29.6717 32.6457 29.643 32.6417C29.6143 32.6377 29.585 32.6397 29.5571 32.6476C29.5063 32.6608 29.4625 32.6932 29.4349 32.738C29.3954 32.8145 29.3684 32.8968 29.3547 32.9818L29.3458 33.0211C29.3242 33.1553 29.2918 33.2875 29.2491 33.4166C29.2176 33.4914 29.1702 33.5583 29.1102 33.6128C29.0503 33.6631 28.9799 33.6991 28.9042 33.7181C28.821 33.7435 28.7332 33.7505 28.647 33.7384C28.5608 33.7264 28.4782 33.6957 28.405 33.6485C28.2486 33.5436 28.1382 33.3828 28.0964 33.1989C28.0567 33.0648 28.0534 32.9225 28.0869 32.7867C28.1196 32.6593 28.1899 32.5446 28.2887 32.4578L28.5113 32.6731Z" fill="#B7A183"/>
</svg>
