<svg width="21" height="20" viewBox="0 0 21 20" fill="none" xmlns="http://www.w3.org/2000/svg">
<path d="M10.4999 9C10.2346 9 9.9803 9.10536 9.79276 9.29289C9.60522 9.48043 9.49987 9.73478 9.49987 10V13C9.49987 13.2652 9.60522 13.5196 9.79276 13.7071C9.9803 13.8946 10.2346 14 10.4999 14C10.7651 14 11.0194 13.8946 11.207 13.7071C11.3945 13.5196 11.4999 13.2652 11.4999 13V10C11.4999 9.73478 11.3945 9.48043 11.207 9.29289C11.0194 9.10536 10.7651 9 10.4999 9ZM10.4999 6C10.3021 6 10.1087 6.05865 9.9443 6.16853C9.77985 6.27841 9.65167 6.43459 9.57599 6.61732C9.5003 6.80004 9.4805 7.00111 9.51908 7.19509C9.55767 7.38907 9.65291 7.56725 9.79276 7.70711C9.93261 7.84696 10.1108 7.9422 10.3048 7.98079C10.4988 8.01937 10.6998 7.99957 10.8826 7.92388C11.0653 7.84819 11.2215 7.72002 11.3313 7.55557C11.4412 7.39112 11.4999 7.19778 11.4999 7C11.4999 6.73478 11.3945 6.48043 11.207 6.29289C11.0194 6.10536 10.7651 6 10.4999 6ZM10.4999 0C9.18665 0 7.88629 0.258658 6.67303 0.761205C5.45978 1.26375 4.35738 2.00035 3.4288 2.92893C1.55343 4.8043 0.499866 7.34784 0.499866 10C0.491124 12.3091 1.29066 14.5485 2.75987 16.33L0.759866 18.33C0.621108 18.4706 0.527112 18.6492 0.489738 18.8432C0.452364 19.0372 0.473287 19.2379 0.549866 19.42C0.632924 19.5999 0.76757 19.7511 0.936713 19.8544C1.10586 19.9577 1.30187 20.0083 1.49987 20H10.4999C13.152 20 15.6956 18.9464 17.5709 17.0711C19.4463 15.1957 20.4999 12.6522 20.4999 10C20.4999 7.34784 19.4463 4.8043 17.5709 2.92893C15.6956 1.05357 13.152 0 10.4999 0ZM10.4999 18H3.90987L4.83987 17.07C4.93435 16.9774 5.00952 16.8669 5.06102 16.7451C5.11252 16.6232 5.13932 16.4923 5.13987 16.36C5.13611 16.0962 5.02828 15.8446 4.83987 15.66C3.53045 14.352 2.71504 12.6305 2.53256 10.7888C2.35007 8.94705 2.81181 7.09901 3.83909 5.55952C4.86638 4.02004 6.39566 2.88436 8.16638 2.34597C9.93711 1.80759 11.8397 1.8998 13.5501 2.60691C15.2604 3.31402 16.6727 4.59227 17.5463 6.22389C18.4199 7.85551 18.7007 9.73954 18.341 11.555C17.9813 13.3705 17.0032 15.005 15.5734 16.1802C14.1436 17.3554 12.3506 17.9985 10.4999 18Z" fill="#333333"/>
</svg>
