<svg width="21" height="21" viewBox="0 0 21 21" fill="none" xmlns="http://www.w3.org/2000/svg">
<path d="M17.5 3.72915H11.22L10.9 2.68748C10.6926 2.07626 10.3077 1.54738 9.7989 1.17411C9.29005 0.800835 8.68236 0.60165 8.06 0.604149H3.5C2.70435 0.604149 1.94129 0.933389 1.37868 1.51944C0.816071 2.10549 0.5 2.90035 0.5 3.72915V17.2708C0.5 18.0996 0.816071 18.8945 1.37868 19.4805C1.94129 20.0666 2.70435 20.3958 3.5 20.3958H17.5C18.2956 20.3958 19.0587 20.0666 19.6213 19.4805C20.1839 18.8945 20.5 18.0996 20.5 17.2708V6.85415C20.5 6.02535 20.1839 5.23049 19.6213 4.64444C19.0587 4.05839 18.2956 3.72915 17.5 3.72915ZM18.5 17.2708C18.5 17.5471 18.3946 17.812 18.2071 18.0074C18.0196 18.2027 17.7652 18.3125 17.5 18.3125H3.5C3.23478 18.3125 2.98043 18.2027 2.79289 18.0074C2.60536 17.812 2.5 17.5471 2.5 17.2708V3.72915C2.5 3.45288 2.60536 3.18793 2.79289 2.99258C2.98043 2.79723 3.23478 2.68748 3.5 2.68748H8.06C8.26964 2.68692 8.47416 2.755 8.64463 2.88211C8.8151 3.00922 8.94291 3.18892 9.01 3.39582L9.55 5.10415C9.61709 5.31105 9.7449 5.49075 9.91537 5.61786C10.0858 5.74496 10.2904 5.81305 10.5 5.81248H17.5C17.7652 5.81248 18.0196 5.92223 18.2071 6.11758C18.3946 6.31293 18.5 6.57788 18.5 6.85415V17.2708Z" fill="#333333"/>
</svg>
