<svg width="21" height="18" viewBox="0 0 21 18" fill="none" xmlns="http://www.w3.org/2000/svg">
<path d="M15.75 8H14.75C14.4848 8 14.2304 8.10536 14.0429 8.29289C13.8554 8.48043 13.75 8.73478 13.75 9C13.75 9.26522 13.8554 9.51957 14.0429 9.70711C14.2304 9.89464 14.4848 10 14.75 10H15.75C16.0152 10 16.2696 9.89464 16.4571 9.70711C16.6446 9.51957 16.75 9.26522 16.75 9C16.75 8.73478 16.6446 8.48043 16.4571 8.29289C16.2696 8.10536 16.0152 8 15.75 8ZM15.75 12H14.75C14.4848 12 14.2304 12.1054 14.0429 12.2929C13.8554 12.4804 13.75 12.7348 13.75 13C13.75 13.2652 13.8554 13.5196 14.0429 13.7071C14.2304 13.8946 14.4848 14 14.75 14H15.75C16.0152 14 16.2696 13.8946 16.4571 13.7071C16.6446 13.5196 16.75 13.2652 16.75 13C16.75 12.7348 16.6446 12.4804 16.4571 12.2929C16.2696 12.1054 16.0152 12 15.75 12ZM9.75 6H15.75C16.0152 6 16.2696 5.89464 16.4571 5.70711C16.6446 5.51957 16.75 5.26522 16.75 5C16.75 4.73478 16.6446 4.48043 16.4571 4.29289C16.2696 4.10536 16.0152 4 15.75 4H9.75C9.48478 4 9.23043 4.10536 9.04289 4.29289C8.85536 4.48043 8.75 4.73478 8.75 5C8.75 5.26522 8.85536 5.51957 9.04289 5.70711C9.23043 5.89464 9.48478 6 9.75 6ZM19.75 0H5.75C5.48478 0 5.23043 0.105357 5.04289 0.292893C4.85536 0.48043 4.75 0.734784 4.75 1V4H1.75C1.48478 4 1.23043 4.10536 1.04289 4.29289C0.855357 4.48043 0.75 4.73478 0.75 5V15C0.75 15.7956 1.06607 16.5587 1.62868 17.1213C2.19129 17.6839 2.95435 18 3.75 18H16.75C17.8109 18 18.8283 17.5786 19.5784 16.8284C20.3286 16.0783 20.75 15.0609 20.75 14V1C20.75 0.734784 20.6446 0.48043 20.4571 0.292893C20.2696 0.105357 20.0152 0 19.75 0ZM4.75 15C4.75 15.2652 4.64464 15.5196 4.45711 15.7071C4.26957 15.8946 4.01522 16 3.75 16C3.48478 16 3.23043 15.8946 3.04289 15.7071C2.85536 15.5196 2.75 15.2652 2.75 15V6H4.75V15ZM18.75 14C18.75 14.5304 18.5393 15.0391 18.1642 15.4142C17.7891 15.7893 17.2804 16 16.75 16H6.57C6.68642 15.6793 6.7473 15.3411 6.75 15V2H18.75V14ZM9.75 10H10.75C11.0152 10 11.2696 9.89464 11.4571 9.70711C11.6446 9.51957 11.75 9.26522 11.75 9C11.75 8.73478 11.6446 8.48043 11.4571 8.29289C11.2696 8.10536 11.0152 8 10.75 8H9.75C9.48478 8 9.23043 8.10536 9.04289 8.29289C8.85536 8.48043 8.75 8.73478 8.75 9C8.75 9.26522 8.85536 9.51957 9.04289 9.70711C9.23043 9.89464 9.48478 10 9.75 10ZM9.75 14H10.75C11.0152 14 11.2696 13.8946 11.4571 13.7071C11.6446 13.5196 11.75 13.2652 11.75 13C11.75 12.7348 11.6446 12.4804 11.4571 12.2929C11.2696 12.1054 11.0152 12 10.75 12H9.75C9.48478 12 9.23043 12.1054 9.04289 12.2929C8.85536 12.4804 8.75 12.7348 8.75 13C8.75 13.2652 8.85536 13.5196 9.04289 13.7071C9.23043 13.8946 9.48478 14 9.75 14Z" fill="#333333"/>
</svg>
